<svg width="16" height="16" viewBox="0 0 16 16" fill="none" xmlns="http://www.w3.org/2000/svg">
<path d="M7.33337 7.33333H4.00004C3.81115 7.33333 3.65282 7.26944 3.52504 7.14167C3.39726 7.01389 3.33337 6.85556 3.33337 6.66667C3.33337 6.47778 3.39726 6.31944 3.52504 6.19167C3.65282 6.06389 3.81115 6 4.00004 6H7.33337V2.66667C7.33337 2.47778 7.39726 2.31944 7.52504 2.19167C7.65282 2.06389 7.81115 2 8.00004 2C8.18893 2 8.34726 2.06389 8.47504 2.19167C8.60282 2.31944 8.66671 2.47778 8.66671 2.66667V6H12C12.1889 6 12.3473 6.06389 12.475 6.19167C12.6028 6.31944 12.6667 6.47778 12.6667 6.66667C12.6667 6.85556 12.6028 7.01389 12.475 7.14167C12.3473 7.26944 12.1889 7.33333 12 7.33333H8.66671V10.6667C8.66671 10.8556 8.60282 11.0139 8.47504 11.1417C8.34726 11.2694 8.18893 11.3333 8.00004 11.3333C7.81115 11.3333 7.65282 11.2694 7.52504 11.1417C7.39726 11.0139 7.33337 10.8556 7.33337 10.6667V7.33333Z" fill="#454DE5"/>
<path d="M4.00004 14C3.81115 14 3.65282 13.9361 3.52504 13.8084C3.39726 13.6806 3.33337 13.5222 3.33337 13.3334C3.33337 13.1445 3.39726 12.9861 3.52504 12.8584C3.65282 12.7306 3.81115 12.6667 4.00004 12.6667H12C12.1889 12.6667 12.3473 12.7306 12.475 12.8584C12.6028 12.9861 12.6667 13.1445 12.6667 13.3334C12.6667 13.5222 12.6028 13.6806 12.475 13.8084C12.3473 13.9361 12.1889 14 12 14H4.00004Z" fill="#454DE5"/>
</svg>
