<svg width="16" height="16" viewBox="0 0 16 16" fill="none" xmlns="http://www.w3.org/2000/svg">
<path d="M3.33333 14C2.96667 14 2.65278 13.8694 2.39167 13.6083C2.13056 13.3472 2 13.0333 2 12.6667V4.35C2 4.19444 2.025 4.04444 2.075 3.9C2.125 3.75556 2.2 3.62222 2.3 3.5L3.13333 2.48333C3.25556 2.32778 3.40833 2.20833 3.59167 2.125C3.775 2.04167 3.96667 2 4.16667 2H11.8333C12.0333 2 12.225 2.04167 12.4083 2.125C12.5917 2.20833 12.7444 2.32778 12.8667 2.48333L13.7 3.5C13.8 3.62222 13.875 3.75556 13.925 3.9C13.975 4.04444 14 4.19444 14 4.35V12.6667C14 13.0333 13.8694 13.3472 13.6083 13.6083C13.3472 13.8694 13.0333 14 12.6667 14H3.33333ZM3.6 4H12.4L11.8333 3.33333H4.16667L3.6 4ZM8 6.66667C7.81111 6.66667 7.65278 6.73056 7.525 6.85833C7.39722 6.98611 7.33333 7.14444 7.33333 7.33333V9.46667L6.73333 8.86667C6.61111 8.74444 6.45556 8.68333 6.26667 8.68333C6.07778 8.68333 5.92222 8.74444 5.8 8.86667C5.67778 8.98889 5.61667 9.14444 5.61667 9.33333C5.61667 9.52222 5.67778 9.67778 5.8 9.8L7.53333 11.5333C7.66667 11.6667 7.82222 11.7333 8 11.7333C8.17778 11.7333 8.33333 11.6667 8.46667 11.5333L10.2 9.8C10.3222 9.67778 10.3833 9.52222 10.3833 9.33333C10.3833 9.14444 10.3222 8.98889 10.2 8.86667C10.0778 8.74444 9.92222 8.68333 9.73333 8.68333C9.54444 8.68333 9.38889 8.74444 9.26667 8.86667L8.66667 9.46667V7.33333C8.66667 7.14444 8.60278 6.98611 8.475 6.85833C8.34722 6.73056 8.18889 6.66667 8 6.66667Z" fill="#FF9900"/>
</svg>
