<svg width="16" height="16" viewBox="0 0 16 16" fill="none" xmlns="http://www.w3.org/2000/svg">
<path d="M8.7833 7.71665L6.18334 5.11666C6.06111 4.99444 6 4.83889 6 4.65C6 4.46111 6.06111 4.30555 6.18334 4.18333C6.30556 4.06111 6.46111 4 6.65 4C6.8389 4 6.99445 4.06111 7.11667 4.18333L10.1833 7.25C10.25 7.31666 10.2972 7.38889 10.325 7.46666C10.3527 7.54444 10.3667 7.62778 10.3667 7.71665C10.3667 7.80553 10.3527 7.88889 10.325 7.96665C10.2972 8.04441 10.25 8.11665 10.1833 8.18337L7.11667 11.25C6.99445 11.3722 6.8389 11.4334 6.65 11.4334C6.46111 11.4334 6.30556 11.3722 6.18334 11.25C6.06111 11.1278 6 10.9722 6 10.7834C6 10.5944 6.06111 10.4389 6.18334 10.3166L8.7833 7.71665Z" fill="black"/>
</svg>
