<svg width="16" height="16" viewBox="0 0 16 16" fill="none" xmlns="http://www.w3.org/2000/svg">
<path fill-rule="evenodd" clip-rule="evenodd" d="M1.72504 15.6083C1.98615 15.8694 2.30004 16 2.66671 16H13.3334C13.7 16 14.0139 15.8694 14.275 15.6083C14.5362 15.3472 14.6667 15.0333 14.6667 14.6666C14.6667 14.3 14.5362 13.9861 14.275 13.725C14.0139 13.4639 13.7 13.3333 13.3334 13.3333H2.66671C2.30004 13.3333 1.98615 13.4639 1.72504 13.725C1.46393 13.9861 1.33337 14.3 1.33337 14.6666C1.33337 15.0333 1.46393 15.3472 1.72504 15.6083ZM2.66671 9.44998V11.3333C2.66671 11.5222 2.7306 11.6805 2.85837 11.8083C2.98615 11.9361 3.14449 12 3.33337 12H5.21671C5.3056 12 5.39171 11.9833 5.47504 11.95C5.55837 11.9166 5.63337 11.8666 5.70004 11.8L12.95 4.54998C13.0834 4.41665 13.1806 4.26942 13.2417 4.10831C13.3028 3.9472 13.3334 3.78331 13.3334 3.61665C13.3334 3.43887 13.3028 3.26665 13.2417 3.09998C13.1806 2.93331 13.0834 2.78887 12.95 2.66665L12.0334 1.73331C11.9 1.59998 11.75 1.49998 11.5834 1.43331C11.4167 1.36665 11.2445 1.33331 11.0667 1.33331C10.8889 1.33331 10.7195 1.36665 10.5584 1.43331C10.3973 1.49998 10.2556 1.59442 10.1334 1.71665L2.86671 8.96665C2.80004 9.03331 2.75004 9.10831 2.71671 9.19165C2.68337 9.27498 2.66671 9.36109 2.66671 9.44998ZM11.2544 2.93809C11.1946 2.75383 10.9339 2.75383 10.874 2.93809L10.8219 3.09844C10.7951 3.18084 10.7183 3.23664 10.6317 3.23664H10.4631C10.2693 3.23664 10.1888 3.48456 10.3455 3.59844L10.4819 3.69754C10.552 3.74847 10.5814 3.83874 10.5546 3.92115L10.5025 4.0815C10.4426 4.26576 10.6535 4.41898 10.8103 4.3051L10.9467 4.206C11.0168 4.15507 11.1117 4.15507 11.1818 4.206L11.3182 4.3051C11.4749 4.41898 11.6858 4.26576 11.6259 4.0815L11.5738 3.92115C11.5471 3.83874 11.5764 3.74847 11.6465 3.69754L11.7829 3.59844C11.9396 3.48456 11.8591 3.23664 11.6653 3.23664H11.4967C11.4101 3.23664 11.3333 3.18084 11.3065 3.09844L11.2544 2.93809Z" fill="#08091C" />
</svg>
