<svg width="16" height="16" viewBox="0 0 16 16" fill="none" xmlns="http://www.w3.org/2000/svg">
<path d="M8.00008 14.6667C7.63341 14.6667 7.31952 14.5361 7.05841 14.275C6.7973 14.0139 6.66675 13.7 6.66675 13.3333H9.33341C9.33341 13.7 9.20286 14.0139 8.94175 14.275C8.68063 14.5361 8.36675 14.6667 8.00008 14.6667ZM3.33341 12.6667C3.14452 12.6667 2.98619 12.6028 2.85841 12.475C2.73063 12.3472 2.66675 12.1889 2.66675 12C2.66675 11.8111 2.73063 11.6528 2.85841 11.525C2.98619 11.3972 3.14452 11.3333 3.33341 11.3333H4.00008V6.66666C4.00008 5.74444 4.27786 4.92499 4.83341 4.20833C5.38897 3.49166 6.11119 3.02222 7.00008 2.79999V2.33333C7.00008 2.05555 7.0973 1.81944 7.29175 1.62499C7.48619 1.43055 7.7223 1.33333 8.00008 1.33333C8.27786 1.33333 8.51397 1.43055 8.70841 1.62499C8.90286 1.81944 9.00008 2.05555 9.00008 2.33333V2.54999C8.88897 2.77222 8.80563 3.00555 8.75008 3.24999C8.69452 3.49444 8.66675 3.74444 8.66675 3.99999C8.66675 4.92222 8.99175 5.70833 9.64175 6.35833C10.2917 7.00833 11.0778 7.33333 12.0001 7.33333V11.3333H12.6667C12.8556 11.3333 13.0139 11.3972 13.1417 11.525C13.2695 11.6528 13.3334 11.8111 13.3334 12C13.3334 12.1889 13.2695 12.3472 13.1417 12.475C13.0139 12.6028 12.8556 12.6667 12.6667 12.6667H3.33341ZM12.0001 6C11.4445 6 10.9723 5.80555 10.5834 5.41666C10.1945 5.02777 10.0001 4.55555 10.0001 3.99999C10.0001 3.44444 10.1945 2.97222 10.5834 2.58333C10.9723 2.19444 11.4445 1.99999 12.0001 1.99999C12.5556 1.99999 13.0278 2.19444 13.4167 2.58333C13.8056 2.97222 14.0001 3.44444 14.0001 3.99999C14.0001 4.55555 13.8056 5.02777 13.4167 5.41666C13.0278 5.80555 12.5556 6 12.0001 6Z" fill="#08091C"/>
</svg>
