<svg width="40" height="40" viewBox="0 0 40 40" fill="none" xmlns="http://www.w3.org/2000/svg">
<path fill-rule="evenodd" clip-rule="evenodd" d="M10.7314 35.3911C8.72939 33.039 9.33632 27.688 12.0438 26.2611C14.8577 24.7832 20.1545 24.1756 23.2285 26.9863C23.457 26.755 24.2374 26.0769 24.3595 25.924C22.6925 23.4543 17.3957 21.5883 10.2112 23.7836L9.16291 13.7872L14.9799 16.4176C15.6223 15.5552 19.3702 15.2416 20.8126 15.5356L25.5182 11.4194L27.5794 18.2797C27.5794 18.2797 33.5934 18.6717 36.892 21.6902C40.1907 24.7087 41.2272 30.6517 38.2083 34.9246C33.55 41.4635 16.174 41.7535 10.7314 35.3911ZM13.8212 10.3453V12.0623L10.0339 12.1681L9.56095 10.6863L10.9443 8.95363L9.71465 8.87523L9.35996 7.12292L13.3443 7.02883L13.8961 8.82034L12.4103 10.3453H13.8212ZM6.77858 13.9205V15.6532L2.97942 15.759L2.50256 14.2654L3.88586 12.5327L2.67202 12.4543L2.31733 10.7059L6.29778 10.6119L6.84952 12.4034L5.36769 13.9283L6.77858 13.9205ZM6.3096 5.50781L6.45542 7.6247L0.788208 7.78542L0 6.06055L3.19224 2.28937L0.220698 2.17961L0.0748799 0.141126L5.73815 0L6.52636 1.96008L3.61393 5.59406L6.3096 5.50781Z" fill="#E5A545"/>
</svg>
