<svg width="20" height="20" viewBox="0 0 20 20" fill="none" xmlns="http://www.w3.org/2000/svg">
    <g clip-path="url(#clip0_1556_5064)">
        <path fill-rule="evenodd" clip-rule="evenodd" d="M0.217956 1.092C-3.05176e-05 1.51982 -3.05176e-05 2.07987 -3.05176e-05 3.19998V16.8C-3.05176e-05 17.9201 -3.05176e-05 18.4801 0.217956 18.908C0.409703 19.2843 0.715664 19.5902 1.09199 19.782C1.51981 20 2.07986 20 3.19997 20H16.8C17.9201 20 18.4801 20 18.9079 19.782C19.2843 19.5902 19.5902 19.2843 19.782 18.908C20 18.4801 20 17.9201 20 16.8V3.19998C20 2.07987 20 1.51982 19.782 1.092C19.5902 0.715672 19.2843 0.409711 18.9079 0.217964C18.4801 -2.28882e-05 17.9201 -2.28882e-05 16.8 -2.28882e-05H3.19997C2.07986 -2.28882e-05 1.51981 -2.28882e-05 1.09199 0.217964C0.715664 0.409711 0.409703 0.715672 0.217956 1.092ZM14.7283 6.79295C14.3378 6.40242 13.7046 6.40242 13.3141 6.79295L8.02122 12.0858L6.20708 10.2717C5.81655 9.88117 5.18339 9.88117 4.79286 10.2717C4.40234 10.6622 4.40234 11.2954 4.79286 11.6859L7.31411 14.2072C7.70464 14.5977 8.3378 14.5977 8.72832 14.2072L14.7283 8.20716C15.1188 7.81664 15.1188 7.18347 14.7283 6.79295Z" fill="#454DE5"/>
    </g>
    <defs>
        <clipPath id="clip0_1556_5064">
            <rect width="20" height="20" fill="white"/>
        </clipPath>
    </defs>
</svg>