<svg width="16" height="16" viewBox="0 0 16 16" fill="none" xmlns="http://www.w3.org/2000/svg">
<path fill-rule="evenodd" clip-rule="evenodd" d="M3.07666 0H12.9233C13.9932 0 14.3811 0.111391 14.7722 0.320559C15.1633 0.529728 15.4703 0.836674 15.6794 1.22779C15.8886 1.6189 16 2.00684 16 3.07666V12.9233C16 13.9932 15.8886 14.3811 15.6794 14.7722C15.4703 15.1633 15.1633 15.4703 14.7722 15.6794C14.3811 15.8886 13.9932 16 12.9233 16H3.07666C2.00684 16 1.6189 15.8886 1.22779 15.6794C0.836674 15.4703 0.529728 15.1633 0.320559 14.7722C0.111391 14.3811 0 13.9932 0 12.9233V3.07666C0 2.00684 0.111391 1.6189 0.320559 1.22779C0.529728 0.836674 0.836674 0.529728 1.22779 0.320559C1.6189 0.111391 2.00684 0 3.07666 0ZM3.07666 1.6C2.34283 1.6 2.16335 1.63466 1.98234 1.73146C1.87006 1.79151 1.79151 1.87006 1.73146 1.98234C1.63466 2.16335 1.6 2.34283 1.6 3.07666V12.9233C1.6 13.6572 1.63466 13.8367 1.73146 14.0177C1.79151 14.1299 1.87006 14.2085 1.98234 14.2685C2.16335 14.3653 2.34283 14.4 3.07666 14.4H12.9233C13.6572 14.4 13.8367 14.3653 14.0177 14.2685C14.1299 14.2085 14.2085 14.1299 14.2685 14.0177C14.3653 13.8367 14.4 13.6572 14.4 12.9233V3.07666C14.4 2.34283 14.3653 2.16335 14.2685 1.98234C14.2085 1.87006 14.1299 1.79151 14.0177 1.73146C13.8367 1.63466 13.6572 1.6 12.9233 1.6H3.07666ZM4 8C4 8.44183 4.35817 8.8 4.8 8.8H11.2C11.6418 8.8 12 8.44183 12 8C12 7.55817 11.6418 7.2 11.2 7.2H4.8C4.35817 7.2 4 7.55817 4 8Z" fill="#454DE5"/>
</svg>
