<svg width="20" height="20" viewBox="0 0 20 20" fill="none" xmlns="http://www.w3.org/2000/svg">
<path fill-rule="evenodd" clip-rule="evenodd" d="M10.0001 4.27083C8.51423 4.27083 7.19983 4.85464 6.25608 5.66856C5.45826 6.35663 4.88008 7.25177 4.73157 8.15104C2.98535 8.53658 1.66675 10.0574 1.66675 11.8939C1.66675 14.0271 3.44543 15.7292 5.60555 15.7292H14.8829C16.7733 15.7292 18.3334 14.2391 18.3334 12.3674C18.3334 10.6631 17.0398 9.27511 15.381 9.04061C15.1285 6.35358 12.8024 4.27083 10.0001 4.27083ZM12.4517 11.4099L10.3684 13.4933C10.165 13.6967 9.83519 13.6967 9.6318 13.4933L7.54846 11.4099C7.34507 11.2066 7.34507 10.8768 7.54846 10.6734C7.75186 10.47 8.08163 10.47 8.28503 10.6734L9.47925 11.8676V7.91667C9.47925 7.62902 9.71243 7.39583 10.0001 7.39583C10.2877 7.39583 10.5209 7.62902 10.5209 7.91667V11.8676L11.7151 10.6734C11.9185 10.47 12.2483 10.47 12.4517 10.6734C12.6551 10.8768 12.6551 11.2066 12.4517 11.4099Z" fill="#08091C"/>
</svg>
