<svg width="16" height="16" viewBox="0 0 16 16" fill="none" xmlns="http://www.w3.org/2000/svg">
<path d="M8.00008 10.3833C7.91119 10.3833 7.82786 10.3694 7.75008 10.3417C7.6723 10.3139 7.60008 10.2667 7.53341 10.2L5.13341 7.8C5.00008 7.66667 4.93619 7.51111 4.94175 7.33333C4.9473 7.15555 5.01119 7 5.13341 6.86667C5.26675 6.73333 5.42508 6.66389 5.60841 6.65833C5.79175 6.65278 5.95008 6.71667 6.08341 6.85L7.33341 8.1V3.33333C7.33341 3.14444 7.3973 2.98611 7.52508 2.85833C7.65286 2.73055 7.81119 2.66667 8.00008 2.66667C8.18897 2.66667 8.3473 2.73055 8.47508 2.85833C8.60286 2.98611 8.66675 3.14444 8.66675 3.33333V8.1L9.91675 6.85C10.0501 6.71667 10.2084 6.65278 10.3917 6.65833C10.5751 6.66389 10.7334 6.73333 10.8667 6.86667C10.989 7 11.0529 7.15555 11.0584 7.33333C11.064 7.51111 11.0001 7.66667 10.8667 7.8L8.46675 10.2C8.40008 10.2667 8.32786 10.3139 8.25008 10.3417C8.1723 10.3694 8.08897 10.3833 8.00008 10.3833ZM4.00008 13.3333C3.63341 13.3333 3.31953 13.2028 3.05841 12.9417C2.7973 12.6806 2.66675 12.3667 2.66675 12V10.6667C2.66675 10.4778 2.73064 10.3194 2.85841 10.1917C2.98619 10.0639 3.14453 10 3.33341 10C3.5223 10 3.68064 10.0639 3.80841 10.1917C3.93619 10.3194 4.00008 10.4778 4.00008 10.6667V12H12.0001V10.6667C12.0001 10.4778 12.064 10.3194 12.1917 10.1917C12.3195 10.0639 12.4779 10 12.6667 10C12.8556 10 13.014 10.0639 13.1417 10.1917C13.2695 10.3194 13.3334 10.4778 13.3334 10.6667V12C13.3334 12.3667 13.2029 12.6806 12.9417 12.9417C12.6806 13.2028 12.3667 13.3333 12.0001 13.3333H4.00008Z" fill="black"/>
</svg>
