<svg width="20" height="20" viewBox="0 0 20 20" fill="none" xmlns="http://www.w3.org/2000/svg">
<mask id="mask0_1142_8003" style="mask-type:alpha" maskUnits="userSpaceOnUse" x="0" y="0" width="20" height="20">
<rect width="20" height="20" fill="#D9D9D9"/>
</mask>
<g mask="url(#mask0_1142_8003)">
<path d="M7.50016 14.9998H12.5002C12.7363 14.9998 12.9342 14.92 13.0939 14.7603C13.2536 14.6005 13.3335 14.4026 13.3335 14.1665C13.3335 13.9304 13.2536 13.7325 13.0939 13.5728C12.9342 13.413 12.7363 13.3332 12.5002 13.3332H7.50016C7.26405 13.3332 7.06613 13.413 6.90641 13.5728C6.74669 13.7325 6.66683 13.9304 6.66683 14.1665C6.66683 14.4026 6.74669 14.6005 6.90641 14.7603C7.06613 14.92 7.26405 14.9998 7.50016 14.9998ZM7.50016 11.6665H12.5002C12.7363 11.6665 12.9342 11.5866 13.0939 11.4269C13.2536 11.2672 13.3335 11.0693 13.3335 10.8332C13.3335 10.5971 13.2536 10.3991 13.0939 10.2394C12.9342 10.0797 12.7363 9.99984 12.5002 9.99984H7.50016C7.26405 9.99984 7.06613 10.0797 6.90641 10.2394C6.74669 10.3991 6.66683 10.5971 6.66683 10.8332C6.66683 11.0693 6.74669 11.2672 6.90641 11.4269C7.06613 11.5866 7.26405 11.6665 7.50016 11.6665ZM5.00016 18.3332C4.54183 18.3332 4.14947 18.17 3.82308 17.8436C3.49669 17.5172 3.3335 17.1248 3.3335 16.6665V3.33317C3.3335 2.87484 3.49669 2.48248 3.82308 2.15609C4.14947 1.8297 4.54183 1.6665 5.00016 1.6665H10.9793C11.2016 1.6665 11.4134 1.70817 11.6147 1.7915C11.8161 1.87484 11.9932 1.99289 12.146 2.14567L16.1877 6.18734C16.3404 6.34012 16.4585 6.5172 16.5418 6.71859C16.6252 6.91998 16.6668 7.13178 16.6668 7.354V16.6665C16.6668 17.1248 16.5036 17.5172 16.1772 17.8436C15.8509 18.17 15.4585 18.3332 15.0002 18.3332H5.00016ZM10.8335 6.6665C10.8335 6.90262 10.9134 7.10053 11.0731 7.26025C11.2328 7.41998 11.4307 7.49984 11.6668 7.49984H15.0002L10.8335 3.33317V6.6665Z" fill="#08091C"/>
</g>
</svg>
