<svg width="16" height="16" viewBox="0 0 16 16" fill="none" xmlns="http://www.w3.org/2000/svg">
<path d="M7.99996 14.2166C7.8444 14.2166 7.68885 14.1889 7.53329 14.1333C7.37774 14.0778 7.23885 13.9944 7.11663 13.8833C6.3944 13.2166 5.75551 12.5666 5.19996 11.9333C4.6444 11.3 4.18051 10.6861 3.80829 10.0916C3.43607 9.4972 3.15274 8.92498 2.95829 8.37498C2.76385 7.82498 2.66663 7.29998 2.66663 6.79998C2.66663 5.13331 3.20274 3.80554 4.27496 2.81665C5.34718 1.82776 6.58885 1.33331 7.99996 1.33331C9.41107 1.33331 10.6527 1.82776 11.725 2.81665C12.7972 3.80554 13.3333 5.13331 13.3333 6.79998C13.3333 7.29998 13.2361 7.82498 13.0416 8.37498C12.8472 8.92498 12.5638 9.4972 12.1916 10.0916C11.8194 10.6861 11.3555 11.3 10.8 11.9333C10.2444 12.5666 9.60551 13.2166 8.88329 13.8833C8.76107 13.9944 8.62218 14.0778 8.46663 14.1333C8.31107 14.1889 8.15551 14.2166 7.99996 14.2166ZM7.99996 7.99998C8.36663 7.99998 8.68051 7.86942 8.94163 7.60831C9.20274 7.3472 9.33329 7.03331 9.33329 6.66665C9.33329 6.29998 9.20274 5.98609 8.94163 5.72498C8.68051 5.46387 8.36663 5.33331 7.99996 5.33331C7.63329 5.33331 7.3194 5.46387 7.05829 5.72498C6.79718 5.98609 6.66663 6.29998 6.66663 6.66665C6.66663 7.03331 6.79718 7.3472 7.05829 7.60831C7.3194 7.86942 7.63329 7.99998 7.99996 7.99998Z" fill="#08091C"/>
</svg>
