<svg width="16" height="16" viewBox="0 0 16 16" fill="none" xmlns="http://www.w3.org/2000/svg">
<path fill-rule="evenodd" clip-rule="evenodd" d="M12.9233 0.000152588H3.07666C2.00684 0.000152588 1.6189 0.111543 1.22779 0.320712C0.836674 0.52988 0.529728 0.836827 0.320559 1.22794C0.111391 1.61905 0 2.00699 0 3.07681V12.9235C0 13.9933 0.111391 14.3813 0.320559 14.7724C0.529728 15.1635 0.836674 15.4704 1.22779 15.6796C1.6189 15.8888 2.00684 16.0002 3.07666 16.0002H12.9233C13.9932 16.0002 14.3811 15.8888 14.7722 15.6796C15.1633 15.4704 15.4703 15.1635 15.6794 14.7724C15.8886 14.3813 16 13.9933 16 12.9235V3.07681C16 2.00699 15.8886 1.61905 15.6794 1.22794C15.4703 0.836827 15.1633 0.52988 14.7722 0.320712C14.3811 0.111543 13.9932 0.000152588 12.9233 0.000152588ZM1.98234 1.73161C2.16335 1.63481 2.34283 1.60015 3.07666 1.60015H12.9233C13.6572 1.60015 13.8367 1.63481 14.0177 1.73161C14.1299 1.79166 14.2085 1.87021 14.2685 1.9825C14.3653 2.1635 14.4 2.34298 14.4 3.07681V12.9235C14.4 13.6573 14.3653 13.8368 14.2685 14.0178C14.2085 14.1301 14.1299 14.2086 14.0177 14.2687C13.8367 14.3655 13.6572 14.4002 12.9233 14.4002H3.07666C2.34283 14.4002 2.16335 14.3655 1.98234 14.2687C1.87006 14.2086 1.79151 14.1301 1.73146 14.0178C1.63466 13.8368 1.6 13.6573 1.6 12.9235V3.07681C1.6 2.34298 1.63466 2.1635 1.73146 1.9825C1.79151 1.87021 1.87006 1.79166 1.98234 1.73161ZM4.8 8.80015C4.35817 8.80015 4 8.44198 4 8.00015C4 7.55832 4.35817 7.20015 4.8 7.20015H7.2V4.80015C7.2 4.35832 7.55817 4.00015 8 4.00015C8.44183 4.00015 8.8 4.35833 8.8 4.80015V7.20015H11.2C11.6418 7.20015 12 7.55832 12 8.00015C12 8.44198 11.6418 8.80015 11.2 8.80015H8.8V11.2002C8.8 11.642 8.44183 12.0002 8 12.0002C7.55817 12.0002 7.2 11.642 7.2 11.2002V8.80015H4.8Z" fill="#454DE5"/>
</svg>
