<svg
        width="102"
        height="6"
        viewBox="0 0 102 6"
        fill="none"
        xmlns="http://www.w3.org/2000/svg">
    <path
            d="M2.70881 5.13068C2.30777 5.13068 1.94152 5.03291 1.61009 4.83736C1.27865 4.63849 1.01349 4.37334 0.814631 4.0419C0.619081 3.71046 0.521307 3.34422 0.521307 2.94318C0.521307 2.53883 0.619081 2.17259 0.814631 1.84446C1.01349 1.51302 1.27865 1.24953 1.61009 1.05398C1.94152 0.855113 2.30777 0.755682 2.70881 0.755682C3.11316 0.755682 3.4794 0.855113 3.80753 1.05398C4.13897 1.24953 4.40246 1.51302 4.59801 1.84446C4.79688 2.17259 4.89631 2.53883 4.89631 2.94318C4.89631 3.34422 4.79688 3.71046 4.59801 4.0419C4.40246 4.37334 4.13897 4.63849 3.80753 4.83736C3.4794 5.03291 3.11316 5.13068 2.70881 5.13068ZM10.119 5.13068C9.71792 5.13068 9.35168 5.03291 9.02024 4.83736C8.6888 4.63849 8.42365 4.37334 8.22479 4.0419C8.02924 3.71046 7.93146 3.34422 7.93146 2.94318C7.93146 2.53883 8.02924 2.17259 8.22479 1.84446C8.42365 1.51302 8.6888 1.24953 9.02024 1.05398C9.35168 0.855113 9.71792 0.755682 10.119 0.755682C10.5233 0.755682 10.8896 0.855113 11.2177 1.05398C11.5491 1.24953 11.8126 1.51302 12.0082 1.84446C12.207 2.17259 12.3065 2.53883 12.3065 2.94318C12.3065 3.34422 12.207 3.71046 12.0082 4.0419C11.8126 4.37334 11.5491 4.63849 11.2177 4.83736C10.8896 5.03291 10.5233 5.13068 10.119 5.13068ZM17.5291 5.13068C17.1281 5.13068 16.7618 5.03291 16.4304 4.83736C16.099 4.63849 15.8338 4.37334 15.6349 4.0419C15.4394 3.71046 15.3416 3.34422 15.3416 2.94318C15.3416 2.53883 15.4394 2.17259 15.6349 1.84446C15.8338 1.51302 16.099 1.24953 16.4304 1.05398C16.7618 0.855113 17.1281 0.755682 17.5291 0.755682C17.9335 0.755682 18.2997 0.855113 18.6278 1.05398C18.9593 1.24953 19.2228 1.51302 19.4183 1.84446C19.6172 2.17259 19.7166 2.53883 19.7166 2.94318C19.7166 3.34422 19.6172 3.71046 19.4183 4.0419C19.2228 4.37334 18.9593 4.63849 18.6278 4.83736C18.2997 5.03291 17.9335 5.13068 17.5291 5.13068ZM24.9393 5.13068C24.5382 5.13068 24.172 5.03291 23.8406 4.83736C23.5091 4.63849 23.244 4.37334 23.0451 4.0419C22.8496 3.71046 22.7518 3.34422 22.7518 2.94318C22.7518 2.53883 22.8496 2.17259 23.0451 1.84446C23.244 1.51302 23.5091 1.24953 23.8406 1.05398C24.172 0.855113 24.5382 0.755682 24.9393 0.755682C25.3436 0.755682 25.7099 0.855113 26.038 1.05398C26.3694 1.24953 26.6329 1.51302 26.8285 1.84446C27.0273 2.17259 27.1268 2.53883 27.1268 2.94318C27.1268 3.34422 27.0273 3.71046 26.8285 4.0419C26.6329 4.37334 26.3694 4.63849 26.038 4.83736C25.7099 5.03291 25.3436 5.13068 24.9393 5.13068ZM32.3494 5.13068C31.9484 5.13068 31.5821 5.03291 31.2507 4.83736C30.9193 4.63849 30.6541 4.37334 30.4553 4.0419C30.2597 3.71046 30.1619 3.34422 30.1619 2.94318C30.1619 2.53883 30.2597 2.17259 30.4553 1.84446C30.6541 1.51302 30.9193 1.24953 31.2507 1.05398C31.5821 0.855113 31.9484 0.755682 32.3494 0.755682C32.7538 0.755682 33.12 0.855113 33.4482 1.05398C33.7796 1.24953 34.0431 1.51302 34.2386 1.84446C34.4375 2.17259 34.5369 2.53883 34.5369 2.94318C34.5369 3.34422 34.4375 3.71046 34.2386 4.0419C34.0431 4.37334 33.7796 4.63849 33.4482 4.83736C33.12 5.03291 32.7538 5.13068 32.3494 5.13068ZM39.7596 5.13068C39.3585 5.13068 38.9923 5.03291 38.6609 4.83736C38.3294 4.63849 38.0643 4.37334 37.8654 4.0419C37.6699 3.71046 37.5721 3.34422 37.5721 2.94318C37.5721 2.53883 37.6699 2.17259 37.8654 1.84446C38.0643 1.51302 38.3294 1.24953 38.6609 1.05398C38.9923 0.855113 39.3585 0.755682 39.7596 0.755682C40.1639 0.755682 40.5302 0.855113 40.8583 1.05398C41.1897 1.24953 41.4532 1.51302 41.6488 1.84446C41.8477 2.17259 41.9471 2.53883 41.9471 2.94318C41.9471 3.34422 41.8477 3.71046 41.6488 4.0419C41.4532 4.37334 41.1897 4.63849 40.8583 4.83736C40.5302 5.03291 40.1639 5.13068 39.7596 5.13068ZM47.1697 5.13068C46.7687 5.13068 46.4025 5.03291 46.071 4.83736C45.7396 4.63849 45.4744 4.37334 45.2756 4.0419C45.08 3.71046 44.9822 3.34422 44.9822 2.94318C44.9822 2.53883 45.08 2.17259 45.2756 1.84446C45.4744 1.51302 45.7396 1.24953 46.071 1.05398C46.4025 0.855113 46.7687 0.755682 47.1697 0.755682C47.5741 0.755682 47.9403 0.855113 48.2685 1.05398C48.5999 1.24953 48.8634 1.51302 49.0589 1.84446C49.2578 2.17259 49.3572 2.53883 49.3572 2.94318C49.3572 3.34422 49.2578 3.71046 49.0589 4.0419C48.8634 4.37334 48.5999 4.63849 48.2685 4.83736C47.9403 5.03291 47.5741 5.13068 47.1697 5.13068ZM54.5799 5.13068C54.1789 5.13068 53.8126 5.03291 53.4812 4.83736C53.1497 4.63849 52.8846 4.37334 52.6857 4.0419C52.4902 3.71046 52.3924 3.34422 52.3924 2.94318C52.3924 2.53883 52.4902 2.17259 52.6857 1.84446C52.8846 1.51302 53.1497 1.24953 53.4812 1.05398C53.8126 0.855113 54.1789 0.755682 54.5799 0.755682C54.9843 0.755682 55.3505 0.855113 55.6786 1.05398C56.0101 1.24953 56.2736 1.51302 56.4691 1.84446C56.668 2.17259 56.7674 2.53883 56.7674 2.94318C56.7674 3.34422 56.668 3.71046 56.4691 4.0419C56.2736 4.37334 56.0101 4.63849 55.6786 4.83736C55.3505 5.03291 54.9843 5.13068 54.5799 5.13068ZM61.9901 5.13068C61.589 5.13068 61.2228 5.03291 60.8913 4.83736C60.5599 4.63849 60.2947 4.37334 60.0959 4.0419C59.9003 3.71046 59.8026 3.34422 59.8026 2.94318C59.8026 2.53883 59.9003 2.17259 60.0959 1.84446C60.2947 1.51302 60.5599 1.24953 60.8913 1.05398C61.2228 0.855113 61.589 0.755682 61.9901 0.755682C62.3944 0.755682 62.7607 0.855113 63.0888 1.05398C63.4202 1.24953 63.6837 1.51302 63.8793 1.84446C64.0781 2.17259 64.1776 2.53883 64.1776 2.94318C64.1776 3.34422 64.0781 3.71046 63.8793 4.0419C63.6837 4.37334 63.4202 4.63849 63.0888 4.83736C62.7607 5.03291 62.3944 5.13068 61.9901 5.13068ZM69.4002 5.13068C68.9992 5.13068 68.6329 5.03291 68.3015 4.83736C67.9701 4.63849 67.7049 4.37334 67.506 4.0419C67.3105 3.71046 67.2127 3.34422 67.2127 2.94318C67.2127 2.53883 67.3105 2.17259 67.506 1.84446C67.7049 1.51302 67.9701 1.24953 68.3015 1.05398C68.6329 0.855113 68.9992 0.755682 69.4002 0.755682C69.8046 0.755682 70.1708 0.855113 70.4989 1.05398C70.8304 1.24953 71.0939 1.51302 71.2894 1.84446C71.4883 2.17259 71.5877 2.53883 71.5877 2.94318C71.5877 3.34422 71.4883 3.71046 71.2894 4.0419C71.0939 4.37334 70.8304 4.63849 70.4989 4.83736C70.1708 5.03291 69.8046 5.13068 69.4002 5.13068ZM76.8104 5.13068C76.4093 5.13068 76.0431 5.03291 75.7116 4.83736C75.3802 4.63849 75.1151 4.37334 74.9162 4.0419C74.7206 3.71046 74.6229 3.34422 74.6229 2.94318C74.6229 2.53883 74.7206 2.17259 74.9162 1.84446C75.1151 1.51302 75.3802 1.24953 75.7116 1.05398C76.0431 0.855113 76.4093 0.755682 76.8104 0.755682C77.2147 0.755682 77.581 0.855113 77.9091 1.05398C78.2405 1.24953 78.504 1.51302 78.6996 1.84446C78.8984 2.17259 78.9979 2.53883 78.9979 2.94318C78.9979 3.34422 78.8984 3.71046 78.6996 4.0419C78.504 4.37334 78.2405 4.63849 77.9091 4.83736C77.581 5.03291 77.2147 5.13068 76.8104 5.13068ZM84.2205 5.13068C83.8195 5.13068 83.4532 5.03291 83.1218 4.83736C82.7904 4.63849 82.5252 4.37334 82.3263 4.0419C82.1308 3.71046 82.033 3.34422 82.033 2.94318C82.033 2.53883 82.1308 2.17259 82.3263 1.84446C82.5252 1.51302 82.7904 1.24953 83.1218 1.05398C83.4532 0.855113 83.8195 0.755682 84.2205 0.755682C84.6249 0.755682 84.9911 0.855113 85.3192 1.05398C85.6507 1.24953 85.9142 1.51302 86.1097 1.84446C86.3086 2.17259 86.408 2.53883 86.408 2.94318C86.408 3.34422 86.3086 3.71046 86.1097 4.0419C85.9142 4.37334 85.6507 4.63849 85.3192 4.83736C84.9911 5.03291 84.6249 5.13068 84.2205 5.13068ZM91.6307 5.13068C91.2296 5.13068 90.8634 5.03291 90.532 4.83736C90.2005 4.63849 89.9354 4.37334 89.7365 4.0419C89.541 3.71046 89.4432 3.34422 89.4432 2.94318C89.4432 2.53883 89.541 2.17259 89.7365 1.84446C89.9354 1.51302 90.2005 1.24953 90.532 1.05398C90.8634 0.855113 91.2296 0.755682 91.6307 0.755682C92.035 0.755682 92.4013 0.855113 92.7294 1.05398C93.0608 1.24953 93.3243 1.51302 93.5199 1.84446C93.7188 2.17259 93.8182 2.53883 93.8182 2.94318C93.8182 3.34422 93.7188 3.71046 93.5199 4.0419C93.3243 4.37334 93.0608 4.63849 92.7294 4.83736C92.4013 5.03291 92.035 5.13068 91.6307 5.13068ZM99.0408 5.13068C98.6398 5.13068 98.2736 5.03291 97.9421 4.83736C97.6107 4.63849 97.3455 4.37334 97.1467 4.0419C96.9511 3.71046 96.8533 3.34422 96.8533 2.94318C96.8533 2.53883 96.9511 2.17259 97.1467 1.84446C97.3455 1.51302 97.6107 1.24953 97.9421 1.05398C98.2736 0.855113 98.6398 0.755682 99.0408 0.755682C99.4452 0.755682 99.8114 0.855113 100.14 1.05398C100.471 1.24953 100.734 1.51302 100.93 1.84446C101.129 2.17259 101.228 2.53883 101.228 2.94318C101.228 3.34422 101.129 3.71046 100.93 4.0419C100.734 4.37334 100.471 4.63849 100.14 4.83736C99.8114 5.03291 99.4452 5.13068 99.0408 5.13068Z"
            fill="#08091C"
    />
</svg>