<svg width="16" height="16" viewBox="0 0 16 16" fill="none" xmlns="http://www.w3.org/2000/svg">
<path d="M7.33325 8.66667H3.99992C3.81103 8.66667 3.6527 8.60278 3.52492 8.475C3.39714 8.34722 3.33325 8.18889 3.33325 8C3.33325 7.81111 3.39714 7.65278 3.52492 7.525C3.6527 7.39722 3.81103 7.33333 3.99992 7.33333H7.33325V4C7.33325 3.81111 7.39714 3.65278 7.52492 3.525C7.6527 3.39722 7.81103 3.33333 7.99992 3.33333C8.18881 3.33333 8.34714 3.39722 8.47492 3.525C8.6027 3.65278 8.66659 3.81111 8.66659 4V7.33333H11.9999C12.1888 7.33333 12.3471 7.39722 12.4749 7.525C12.6027 7.65278 12.6666 7.81111 12.6666 8C12.6666 8.18889 12.6027 8.34722 12.4749 8.475C12.3471 8.60278 12.1888 8.66667 11.9999 8.66667H8.66659V12C8.66659 12.1889 8.6027 12.3472 8.47492 12.475C8.34714 12.6028 8.18881 12.6667 7.99992 12.6667C7.81103 12.6667 7.6527 12.6028 7.52492 12.475C7.39714 12.3472 7.33325 12.1889 7.33325 12V8.66667Z" fill="black"/>
</svg>
