<svg width="12" height="12" viewBox="0 0 12 12" fill="none" xmlns="http://www.w3.org/2000/svg">
<path d="M7.39406 4.97461C7.19741 5.26339 7.58241 5.59084 7.83588 5.35038L10.5014 2.82056C11.0586 2.29169 11.8626 2.58684 11.765 3.34886C11.7143 3.74465 11.6423 4.14923 11.5729 4.53944C11.4616 5.16481 11.3569 5.75327 11.3569 6.20939C11.3569 7.19265 11.1037 8.09397 10.5971 8.91335C10.1055 9.71784 9.45745 10.3659 8.65296 10.8575C7.84848 11.3343 6.96207 11.5726 5.99371 11.5726C4.51883 11.5726 3.2525 11.0512 2.19475 10.0083C1.1519 8.9506 0.630481 7.68428 0.630481 6.20939C0.630481 5.75327 0.528694 5.16481 0.42052 4.53944C0.182446 3.16309 -0.0865638 1.6079 0.630481 0.890857C1.35757 0.174006 2.92236 0.442676 4.30867 0.680702C4.93912 0.788948 5.53266 0.890857 5.99371 0.890857C6.43622 0.890857 7.01563 0.791026 7.63664 0.684027C8.0554 0.611877 8.49307 0.536468 8.92043 0.486211C9.64153 0.401411 9.99979 1.15782 9.59041 1.75747L7.39406 4.97461Z" fill="#454DE5"/>
</svg>
