<svg width="10" height="10" viewBox="0 0 10 10" fill="none" xmlns="http://www.w3.org/2000/svg">
<path d="M2.49935 5.01894C2.49935 5.11995 2.50629 5.21939 2.52018 5.31724C2.53407 5.4151 2.55838 5.51137 2.5931 5.60607C2.62782 5.71339 2.62435 5.81598 2.58268 5.91383C2.54102 6.01169 2.4681 6.08271 2.36393 6.1269C2.25282 6.17741 2.14345 6.18214 2.03581 6.14111C1.92817 6.10007 1.85699 6.02589 1.82227 5.91857C1.76671 5.77336 1.72678 5.62501 1.70247 5.47349C1.67817 5.32198 1.66602 5.17046 1.66602 5.01894C1.66602 4.17299 1.98893 3.45329 2.63477 2.85985C3.2806 2.26642 4.06879 1.96971 4.99935 1.96971H5.07227L4.69727 1.6288C4.62088 1.55935 4.58268 1.47097 4.58268 1.36364C4.58268 1.25631 4.62088 1.16793 4.69727 1.09849C4.77365 1.02904 4.87088 0.994324 4.98893 0.994324C5.10699 0.994324 5.20421 1.02904 5.2806 1.09849L6.36393 2.08334C6.44727 2.1591 6.48893 2.24748 6.48893 2.34849C6.48893 2.4495 6.44727 2.53789 6.36393 2.61364L5.2806 3.59849C5.20421 3.66793 5.10699 3.70266 4.98893 3.70266C4.87088 3.70266 4.77365 3.66793 4.69727 3.59849C4.62088 3.52904 4.58268 3.44066 4.58268 3.33334C4.58268 3.22601 4.62088 3.13763 4.69727 3.06819L5.07227 2.72728H4.99935C4.3049 2.72728 3.71463 2.94981 3.22852 3.3949C2.7424 3.83997 2.49935 4.38131 2.49935 5.01894ZM7.49935 4.98107C7.49935 4.88006 7.4924 4.78062 7.47852 4.68277C7.46463 4.58491 7.44032 4.48864 7.4056 4.39394C7.37088 4.28662 7.37435 4.18403 7.41602 4.08618C7.45768 3.98832 7.5306 3.91731 7.63477 3.87311C7.74588 3.82261 7.85525 3.81787 7.96289 3.85891C8.07053 3.89994 8.14171 3.97412 8.17643 4.08144C8.23199 4.22665 8.27192 4.37501 8.29622 4.52652C8.32053 4.67803 8.33268 4.82955 8.33268 4.98107C8.33268 5.82702 8.00977 6.54672 7.36393 7.14016C6.7181 7.73359 5.9299 8.03031 4.99935 8.03031H4.92643L5.30143 8.37121C5.37782 8.44066 5.41602 8.52905 5.41602 8.63637C5.41602 8.7437 5.37782 8.83208 5.30143 8.90152C5.22504 8.97097 5.12782 9.00569 5.00977 9.00569C4.89171 9.00569 4.79449 8.97097 4.7181 8.90152L3.63477 7.91667C3.55143 7.84091 3.50977 7.75253 3.50977 7.65152C3.50977 7.55051 3.55143 7.46212 3.63477 7.38637L4.7181 6.40152C4.79449 6.33208 4.89171 6.29735 5.00977 6.29735C5.12782 6.29735 5.22504 6.33208 5.30143 6.40152C5.37782 6.47097 5.41602 6.55935 5.41602 6.66667C5.41602 6.774 5.37782 6.86238 5.30143 6.93182L4.92643 7.27273H4.99935C5.69379 7.27273 6.28407 7.0502 6.77018 6.60512C7.25629 6.16004 7.49935 5.6187 7.49935 4.98107Z" fill="#454DE5"/>
</svg>
