<svg width="20" height="20" viewBox="0 0 20 20" fill="none" xmlns="http://www.w3.org/2000/svg">
<path d="M10 13.3333C11.0417 13.3333 11.9271 12.9688 12.6563 12.2396C13.3854 11.5104 13.75 10.625 13.75 9.58334C13.75 8.54168 13.3854 7.65626 12.6563 6.92709C11.9271 6.19793 11.0417 5.83334 10 5.83334C8.95833 5.83334 8.07292 6.19793 7.34375 6.92709C6.61458 7.65626 6.25 8.54168 6.25 9.58334C6.25 10.625 6.61458 11.5104 7.34375 12.2396C8.07292 12.9688 8.95833 13.3333 10 13.3333ZM10 11.8333C9.375 11.8333 8.84375 11.6146 8.40625 11.1771C7.96875 10.7396 7.75 10.2083 7.75 9.58334C7.75 8.95834 7.96875 8.42709 8.40625 7.98959C8.84375 7.55209 9.375 7.33334 10 7.33334C10.625 7.33334 11.1562 7.55209 11.5937 7.98959C12.0312 8.42709 12.25 8.95834 12.25 9.58334C12.25 10.2083 12.0312 10.7396 11.5937 11.1771C11.1562 11.6146 10.625 11.8333 10 11.8333ZM10 15.8333C8.13889 15.8333 6.44097 15.3333 4.90625 14.3333C3.37153 13.3333 2.15972 12.0139 1.27083 10.375C1.20139 10.25 1.14931 10.1215 1.11458 9.98959C1.07986 9.85765 1.0625 9.72223 1.0625 9.58334C1.0625 9.44445 1.07986 9.30904 1.11458 9.17709C1.14931 9.04515 1.20139 8.91668 1.27083 8.79168C2.15972 7.15279 3.37153 5.83334 4.90625 4.83334C6.44097 3.83334 8.13889 3.33334 10 3.33334C11.8611 3.33334 13.559 3.83334 15.0937 4.83334C16.6285 5.83334 17.8403 7.15279 18.7292 8.79168C18.7986 8.91668 18.8507 9.04515 18.8854 9.17709C18.9201 9.30904 18.9375 9.44445 18.9375 9.58334C18.9375 9.72223 18.9201 9.85765 18.8854 9.98959C18.8507 10.1215 18.7986 10.25 18.7292 10.375C17.8403 12.0139 16.6285 13.3333 15.0937 14.3333C13.559 15.3333 11.8611 15.8333 10 15.8333Z" fill="#1C1B1F"/>
</svg>
