<svg width="18" height="18" viewBox="0 0 18 18" fill="none" xmlns="http://www.w3.org/2000/svg">
<mask id="mask0_858_11494" style="mask-type:alpha" maskUnits="userSpaceOnUse" x="0" y="0" width="18" height="18">
<rect width="18" height="18" fill="#D9D9D9"/>
</mask>
<g mask="url(#mask0_858_11494)">
<path d="M2.04359 15.75C1.90609 15.75 1.78109 15.7156 1.66859 15.6469C1.55609 15.5781 1.46859 15.4875 1.40609 15.375C1.34359 15.2625 1.30922 15.1406 1.30297 15.0094C1.29672 14.8781 1.33109 14.75 1.40609 14.625L8.34359 2.625C8.41859 2.5 8.51547 2.40625 8.63422 2.34375C8.75297 2.28125 8.87484 2.25 8.99984 2.25C9.12484 2.25 9.24672 2.28125 9.36547 2.34375C9.48422 2.40625 9.58109 2.5 9.65609 2.625L16.5936 14.625C16.6686 14.75 16.703 14.8781 16.6967 15.0094C16.6905 15.1406 16.6561 15.2625 16.5936 15.375C16.5311 15.4875 16.4436 15.5781 16.3311 15.6469C16.2186 15.7156 16.0936 15.75 15.9561 15.75H2.04359ZM8.99984 13.5C9.21234 13.5 9.39047 13.4281 9.53422 13.2844C9.67797 13.1406 9.74984 12.9625 9.74984 12.75C9.74984 12.5375 9.67797 12.3594 9.53422 12.2156C9.39047 12.0719 9.21234 12 8.99984 12C8.78734 12 8.60922 12.0719 8.46547 12.2156C8.32172 12.3594 8.24984 12.5375 8.24984 12.75C8.24984 12.9625 8.32172 13.1406 8.46547 13.2844C8.60922 13.4281 8.78734 13.5 8.99984 13.5ZM8.99984 11.25C9.21234 11.25 9.39047 11.1781 9.53422 11.0344C9.67797 10.8906 9.74984 10.7125 9.74984 10.5V8.25C9.74984 8.0375 9.67797 7.85938 9.53422 7.71562C9.39047 7.57188 9.21234 7.5 8.99984 7.5C8.78734 7.5 8.60922 7.57188 8.46547 7.71562C8.32172 7.85938 8.24984 8.0375 8.24984 8.25V10.5C8.24984 10.7125 8.32172 10.8906 8.46547 11.0344C8.60922 11.1781 8.78734 11.25 8.99984 11.25Z" fill="#E5A545"/>
</g>
</svg>
